<svg width="65" height="65" viewBox="0 0 65 65" fill="none" xmlns="http://www.w3.org/2000/svg">
<path d="M32.5 8.125C19.0621 8.125 8.125 19.0621 8.125 32.5C8.125 45.9379 19.0621 56.875 32.5 56.875C45.9379 56.875 56.875 45.9379 56.875 32.5C56.875 19.0621 45.9379 8.125 32.5 8.125ZM32.5 12.1875C43.7423 12.1875 52.8125 21.2577 52.8125 32.5C52.8125 42.7119 45.3206 51.1088 35.5231 52.5665V38.4232H41.3074L42.2159 32.5476H35.5231V29.3381C35.5231 26.8985 36.3246 24.7321 38.6057 24.7321H42.2715V19.6063C41.6275 19.519 40.2649 19.3286 37.6892 19.3286C32.3105 19.3286 29.1596 22.1682 29.1596 28.6398V32.5476H23.6292V38.4231H29.1596V52.5149C19.518 50.9247 12.1875 42.6015 12.1875 32.5C12.1875 21.2576 21.2577 12.1875 32.5 12.1875Z" fill="white"/>
</svg>
